<svg width="801" height="238" viewBox="0 0 801 238" fill="none" xmlns="http://www.w3.org/2000/svg">
<g clip-path="url(#clip0_1_4)">
<path d="M178.68 117.755C178.508 98.6453 194.331 89.3484 195.055 88.9155C186.094 75.8537 172.204 74.069 167.323 73.9267C155.657 72.6994 144.342 80.9053 138.399 80.9053C132.338 80.9053 123.187 74.0453 113.324 74.2469C100.632 74.4425 88.759 81.7887 82.2471 93.1964C68.8081 116.456 78.831 150.638 91.7065 169.439C98.1473 178.653 105.673 188.928 115.524 188.567C125.162 188.175 128.762 182.43 140.392 182.43C151.915 182.43 155.296 188.567 165.342 188.335C175.685 188.175 182.197 179.086 188.413 169.795C195.856 159.247 198.845 148.847 198.963 148.314C198.726 148.231 178.882 140.653 178.68 117.755ZM159.702 61.5585C164.886 55.078 168.432 46.2613 167.448 37.3143C159.945 37.6463 150.563 42.5023 145.16 48.8405C140.38 54.4258 136.11 63.5803 137.213 72.1895C145.64 72.8179 154.293 67.9383 159.702 61.5585Z" fill="#212226"/>
<path d="M312.632 188.073H299.163L291.785 164.896H266.141L259.113 188.073H246L271.413 109.168H287.106L312.632 188.073ZM289.561 155.172L282.889 134.568C282.183 132.464 280.855 127.507 278.909 119.704H278.672C277.889 123.06 276.638 128.017 274.924 134.568L268.365 155.172H289.561ZM377.857 158.925C377.857 168.602 375.23 176.25 369.97 181.865C365.261 186.863 359.407 189.36 352.427 189.36C344.889 189.36 339.468 186.674 336.176 181.29V211.143H323.532V149.877C323.532 143.8 323.372 137.569 323.064 131.177H334.184L334.889 140.195H335.127C339.343 133.4 345.743 130.003 354.33 130.003C361.044 130.003 366.648 132.653 371.132 137.96C375.61 143.278 377.857 150.263 377.857 158.925ZM364.976 159.388C364.976 153.85 363.73 149.285 361.228 145.686C358.494 141.944 354.823 140.071 350.22 140.071C347.101 140.071 344.266 141.114 341.733 143.172C339.195 145.247 337.535 147.956 336.758 151.312C336.411 152.567 336.214 153.859 336.17 155.16V164.653C336.17 168.786 337.44 172.278 339.978 175.136C342.516 177.982 345.814 179.411 349.87 179.411C354.633 179.411 358.339 177.567 360.99 173.908C363.647 170.238 364.976 165.4 364.976 159.388ZM443.315 158.925C443.315 168.602 440.687 176.25 435.427 181.865C430.712 186.863 424.864 189.36 417.878 189.36C410.34 189.36 404.919 186.674 401.628 181.29V211.143H388.983V149.877C388.983 143.8 388.823 137.569 388.515 131.177H399.635L400.341 140.195H400.578C404.789 133.4 411.188 130.003 419.782 130.003C426.489 130.003 432.094 132.653 436.589 137.96C441.061 143.278 443.315 150.263 443.315 158.925ZM430.427 159.388C430.427 153.85 429.176 149.285 426.673 145.686C423.939 141.944 420.28 140.071 415.678 140.071C412.558 140.071 409.723 141.114 407.179 143.172C404.641 145.247 402.986 147.956 402.209 151.312C401.823 152.878 401.616 154.152 401.616 155.16V164.653C401.616 168.786 402.891 172.278 405.417 175.136C407.956 177.976 411.253 179.411 415.322 179.411C420.09 179.411 423.797 177.567 426.442 173.908C429.099 170.238 430.427 165.4 430.427 159.388ZM516.5 165.94C516.5 172.657 514.151 178.118 509.484 182.334C504.348 186.935 497.177 189.241 487.985 189.241C479.492 189.241 472.684 187.605 467.548 184.326L470.471 173.79C476.017 177.074 482.107 178.711 488.738 178.711C493.506 178.711 497.213 177.632 499.858 175.491C502.509 173.345 503.849 170.475 503.849 166.894C503.849 163.686 502.74 161.001 500.564 158.813C498.375 156.631 494.758 154.597 489.675 152.729C475.856 147.577 468.941 140.041 468.941 130.128C468.941 123.653 471.385 118.352 476.26 114.208C481.135 110.069 487.599 108 495.641 108C502.823 108 508.807 109.251 513.558 111.747L510.385 122.052C505.913 119.633 500.866 118.423 495.22 118.423C490.76 118.423 487.261 119.52 484.758 121.702C482.653 123.653 481.585 126.031 481.585 128.853C481.585 131.966 482.801 134.551 485.221 136.578C487.32 138.446 491.152 140.48 496.691 142.662C503.488 145.401 508.481 148.591 511.678 152.255C514.898 155.919 516.5 160.491 516.5 165.94ZM558.412 140.664H544.475V168.287C544.475 175.313 546.93 178.818 551.853 178.818C554.112 178.818 555.986 178.628 557.469 178.231L557.819 187.83C555.328 188.761 552.048 189.229 547.986 189.229C542.992 189.229 539.09 187.705 536.273 184.658C533.467 181.61 532.056 176.505 532.056 169.319V140.64H523.753V131.153H532.056V120.736L544.475 116.989V131.153H558.412V140.664ZM621.171 159.157C621.171 167.902 618.668 175.082 613.674 180.697C608.449 186.478 601.498 189.36 592.834 189.36C584.471 189.36 577.823 186.591 572.865 181.059C567.907 175.515 565.428 168.531 565.428 160.105C565.428 151.289 567.99 144.067 573.096 138.452C578.215 132.831 585.106 130.021 593.771 130.021C602.121 130.021 608.829 132.796 613.905 138.333C618.757 143.705 621.171 150.642 621.171 159.157ZM608.064 159.447C608.064 154.235 606.937 149.765 604.677 146.024C602.026 141.506 598.231 139.247 593.314 139.247C588.249 139.247 584.365 141.506 581.72 146.024C579.454 149.765 578.327 154.312 578.327 159.684C578.327 164.902 579.454 169.384 581.72 173.114C584.454 177.632 588.267 179.891 593.207 179.891C598.041 179.891 601.831 177.584 604.571 173.001C606.895 169.171 608.064 164.671 608.064 159.447ZM662.288 142.294C660.973 142.057 659.639 141.94 658.303 141.944C653.855 141.944 650.415 143.616 647.995 146.984C645.896 149.949 644.84 153.696 644.84 158.22V188.073H632.196V149.095C632.207 143.122 632.084 137.15 631.828 131.183H642.841L643.304 142.069H643.654C644.994 138.328 647.094 135.31 649.976 133.051C652.614 131.077 655.82 130.008 659.115 130.003C660.284 130.003 661.339 130.086 662.276 130.234L662.288 142.294ZM718.837 156.933C718.87 158.855 718.715 160.775 718.375 162.667H680.442C680.584 168.287 682.423 172.592 685.946 175.557C689.142 178.201 693.276 179.529 698.353 179.529C703.969 179.529 709.093 178.64 713.702 176.843L715.682 185.612C710.297 187.96 703.94 189.128 696.603 189.128C687.778 189.128 680.851 186.531 675.81 181.349C670.781 176.161 668.26 169.189 668.26 160.455C668.26 151.882 670.603 144.737 675.294 139.039C680.205 132.956 686.841 129.914 695.192 129.914C703.394 129.914 709.603 132.956 713.82 139.039C717.159 143.859 718.837 149.836 718.837 156.933ZM706.78 153.654C706.869 149.901 706.039 146.67 704.325 143.936C702.137 140.415 698.768 138.66 694.255 138.66C690.121 138.66 686.752 140.373 684.19 143.812C682.085 146.545 680.834 149.83 680.448 153.642L706.78 153.654Z" fill="#212226"/>
<path d="M268.133 78.4391C264.616 78.4391 261.574 78.2672 259.041 77.9767V39.8286C262.583 39.2816 266.163 39.012 269.746 39.0222C284.247 39.0222 290.925 46.155 290.925 57.782C290.925 71.1937 283.037 78.4391 268.133 78.4391ZM270.256 43.9138C268.299 43.9138 266.633 44.0324 265.251 44.317V73.3164C265.998 73.435 267.433 73.4883 269.45 73.4883C278.951 73.4883 284.36 68.0809 284.36 57.954C284.36 48.9239 279.467 43.9138 270.256 43.9138ZM311.736 78.7297C303.563 78.7297 298.267 72.6286 298.267 64.3456C298.267 55.7128 303.676 49.5583 312.198 49.5583C320.252 49.5583 325.667 55.3689 325.667 63.889C325.667 72.6286 320.086 78.7297 311.736 78.7297ZM311.973 54.1C307.483 54.1 304.607 58.2979 304.607 64.1677C304.607 69.9249 307.543 74.1227 311.914 74.1227C316.285 74.1227 319.22 69.6344 319.22 64.0491C319.22 58.3572 316.344 54.1 311.973 54.1ZM372.271 50.1334L363.523 78.0953H357.823L354.2 65.9524C353.299 62.9822 352.548 59.9683 351.952 56.9223H351.833C351.377 59.9699 350.511 63.0234 349.591 65.9524L345.737 78.0953H339.978L331.746 50.1334H338.133L341.3 63.4266C342.048 66.5927 342.676 69.581 343.198 72.4033H343.317C343.773 70.0494 344.521 67.1086 345.618 63.4859L349.591 50.1394H354.656L358.458 63.2013C359.377 66.3674 360.124 69.4743 360.706 72.4092H360.872C361.275 69.5336 361.91 66.4801 362.77 63.2013L366.168 50.1394L372.271 50.1334ZM404.474 78.0953H398.259V62.0392C398.259 57.0943 396.361 54.6159 392.619 54.6159C388.936 54.6159 386.403 57.782 386.403 61.464V78.0953H380.188V58.1259C380.188 55.6535 380.129 53.0031 379.957 50.1275H385.425L385.715 54.4439H385.887C387.56 51.4556 390.952 49.5583 394.754 49.5583C400.625 49.5583 404.48 54.0467 404.48 61.3514L404.474 78.0953ZM421.614 78.0953H415.393V37.3028H421.614V78.0953ZM444.275 78.7297C436.109 78.7297 430.807 72.6286 430.807 64.3456C430.807 55.7128 436.215 49.5583 444.732 49.5583C452.792 49.5583 458.201 55.3689 458.201 63.889C458.206 72.6286 452.62 78.7297 444.275 78.7297ZM444.507 54.1C440.017 54.1 437.141 58.2979 437.141 64.1677C437.141 69.9249 440.082 74.1227 444.441 74.1227C448.818 74.1227 451.748 69.6344 451.748 64.0491C451.754 58.3572 448.883 54.1 444.507 54.1ZM482.706 78.0953L482.255 74.8757H482.089C480.192 77.4668 477.422 78.7297 473.911 78.7297C468.899 78.7297 465.341 75.2196 465.341 70.5C465.341 63.5985 471.325 60.0292 481.686 60.0292V59.5133C481.686 55.8313 479.735 53.9874 475.88 53.9874C473.122 53.9874 470.702 54.6811 468.573 56.0626L467.31 51.9774C469.896 50.3647 473.122 49.5583 476.912 49.5583C484.219 49.5583 487.907 53.4123 487.907 61.1261V71.425C487.907 74.2472 488.032 76.4351 488.311 78.1012L482.706 78.0953ZM481.852 64.1677C474.949 64.1677 471.485 65.8397 471.485 69.8063C471.485 72.7412 473.27 74.1761 475.749 74.1761C478.911 74.1761 481.852 71.7629 481.852 68.4841V64.1677ZM518.089 78.0953L517.798 73.6069H517.626C515.841 76.9984 512.84 78.7297 508.647 78.7297C501.904 78.7297 496.91 72.8005 496.91 64.4582C496.91 55.7128 502.088 49.5524 509.157 49.5524C512.899 49.5524 515.55 50.8153 517.045 53.353H517.17V37.3028H523.391V70.5593C523.391 73.263 523.456 75.7947 523.622 78.0953H518.089ZM517.17 61.6419C517.17 57.7287 514.578 54.3906 510.622 54.3906C506.014 54.3906 503.197 58.4757 503.197 64.227C503.197 69.8656 506.121 73.7255 510.498 73.7255C514.406 73.7255 517.17 70.3281 517.17 66.3022V61.6419ZM562.836 78.7297C554.669 78.7297 549.373 72.6286 549.373 64.3456C549.373 55.7128 554.782 49.5583 563.299 49.5583C571.358 49.5583 576.767 55.3689 576.767 63.889C576.773 72.6286 571.192 78.7297 562.836 78.7297ZM563.067 54.1C558.584 54.1 555.707 58.2979 555.707 64.1677C555.707 69.9249 558.643 74.1227 563.008 74.1227C567.385 74.1227 570.315 69.6344 570.315 64.0491C570.326 58.3572 567.45 54.1 563.067 54.1ZM610.193 78.0953H603.971V62.0392C603.971 57.0943 602.074 54.6159 598.331 54.6159C594.648 54.6159 592.122 57.782 592.122 61.464V78.0953H585.901V58.1259C585.901 55.6535 585.841 53.0031 585.669 50.1275H591.137L591.428 54.4439H591.6C593.266 51.4556 596.665 49.5524 600.46 49.5524C606.332 49.5524 610.193 54.0407 610.193 61.3454V78.0953ZM652.01 54.7938H645.172V68.3715C645.172 71.8282 646.37 73.5535 648.79 73.5535C649.887 73.5535 650.806 73.435 651.548 73.263L651.719 77.9826C650.516 78.4451 648.902 78.6763 646.898 78.6763C641.999 78.6763 639.069 75.9726 639.069 68.8932V54.7938H634.989V50.1334H639.069V45.0107L645.172 43.1667V50.1275H652.01V54.7938ZM684.914 78.0953H678.704V62.1577C678.704 57.1535 676.812 54.6218 673.064 54.6218C669.844 54.6218 666.843 56.8097 666.843 61.2387V78.0953H660.633V37.3028H666.843V54.1H666.967C668.924 51.0525 671.759 49.5524 675.377 49.5524C681.296 49.5524 684.914 54.1534 684.914 61.464V78.0953ZM718.624 65.6085H699.972C700.09 70.9032 703.595 73.8915 708.785 73.8915C711.543 73.8915 714.081 73.429 716.323 72.5693L717.289 76.8857C714.644 78.036 711.531 78.6111 707.907 78.6111C699.159 78.6111 693.982 73.0851 693.982 64.5175C693.982 55.944 699.284 49.499 707.207 49.499C714.354 49.499 718.837 54.7938 718.837 62.7922C718.877 63.7361 718.806 64.6814 718.624 65.6085ZM712.924 61.1794C712.924 56.863 710.748 53.8154 706.774 53.8154C703.204 53.8154 700.381 56.9223 699.978 61.1794H712.924Z" fill="#212226"/>
</g>
<defs>
<clipPath id="clip0_1_4">
<rect width="800.207" height="237.1" fill="white" transform="translate(1.52588e-05 0.45282)"/>
</clipPath>
</defs>
</svg>
