<svg width="924" height="275" viewBox="0 0 924 275" fill="none" xmlns="http://www.w3.org/2000/svg">
<path d="M731.186 205.46H743.945V119.844H731.186L731.186 205.46ZM846.106 150.685L831.48 187.804H831.043L815.863 150.684H802.119L824.882 202.565L811.904 231.423H825.217L860.294 150.684L846.106 150.685ZM773.75 195.736C769.566 195.736 763.74 193.643 763.74 188.464C763.74 181.856 771.002 179.323 777.265 179.323C782.879 179.323 785.511 180.534 788.923 182.188C787.932 190.118 781.114 195.736 773.75 195.736ZM775.289 148.811C766.051 148.811 756.485 152.888 752.527 161.92L763.849 166.656C766.27 161.92 770.776 160.376 775.508 160.376C782.106 160.376 788.814 164.344 788.923 171.393V172.274C786.612 170.952 781.668 168.97 775.617 168.97C763.412 168.97 750.981 175.687 750.981 188.245C750.981 199.7 760.991 207.081 772.205 207.081C780.786 207.081 785.511 203.226 788.485 198.711H788.923V205.318H801.238V172.493C801.238 157.295 789.914 148.811 775.289 148.811ZM696.438 161.107H678.291V131.76H696.438C705.976 131.76 711.392 139.67 711.392 146.433C711.392 153.068 705.976 161.107 696.438 161.107ZM696.109 119.844H665.538V205.46H678.29V173.023H696.109C710.25 173.023 724.15 162.768 724.15 146.433C724.15 130.098 710.25 119.844 696.109 119.844ZM529.402 195.751C520.587 195.751 513.208 188.36 513.208 178.207C513.208 167.948 520.587 160.444 529.402 160.444C538.104 160.444 544.933 167.948 544.933 178.207C544.933 188.36 538.104 195.751 529.402 195.751ZM544.052 155.479H543.611C540.748 152.059 535.237 148.97 528.299 148.97C513.758 148.97 500.43 161.768 500.43 178.207C500.43 194.537 513.758 207.226 528.299 207.226C535.237 207.226 540.748 204.135 543.611 200.607H544.052V204.799C544.052 215.945 538.104 221.902 528.52 221.902C520.699 221.902 515.852 216.273 513.867 211.53L502.743 216.164C505.938 223.887 514.42 233.377 528.52 233.377C543.501 233.377 556.17 224.548 556.17 203.034V150.735H544.052V155.479ZM564.981 205.46H577.759V119.84H564.981V205.46ZM596.597 177.215C596.266 165.96 605.299 160.224 611.798 160.224C616.868 160.224 621.162 162.76 622.591 166.404L596.597 177.215ZM636.253 167.506C633.832 160.994 626.448 148.97 611.356 148.97C596.375 148.97 583.929 160.775 583.929 178.098C583.929 194.428 596.266 207.226 612.788 207.226C626.12 207.226 633.832 199.061 637.026 194.317L627.111 187.696C623.808 192.552 619.289 195.751 612.788 195.751C606.29 195.751 601.664 192.771 598.688 186.925L637.573 170.815L636.253 167.506ZM326.453 157.907V170.264H355.975C355.093 177.215 352.78 182.29 349.255 185.821C344.96 190.125 338.24 194.869 326.453 194.869C308.277 194.869 294.068 180.195 294.068 161.989C294.068 143.784 308.277 129.108 326.453 129.108C336.258 129.108 343.416 132.971 348.704 137.936L357.406 129.221C350.027 122.158 340.222 116.751 326.453 116.751C301.557 116.751 280.628 137.054 280.628 161.989C280.628 186.925 301.557 207.226 326.453 207.226C339.893 207.226 350.027 202.814 357.957 194.537C366.109 186.372 368.643 174.898 368.643 165.631C368.643 162.76 368.424 160.114 367.981 157.907H326.453ZM402.206 195.751C393.392 195.751 385.791 188.469 385.791 178.098C385.791 167.616 393.392 160.444 402.206 160.444C411.017 160.444 418.619 167.616 418.619 178.098C418.619 188.469 411.017 195.751 402.206 195.751ZM402.206 148.97C386.122 148.97 373.013 161.216 373.013 178.098C373.013 194.869 386.122 207.226 402.206 207.226C418.288 207.226 431.397 194.869 431.397 178.098C431.397 161.216 418.288 148.97 402.206 148.97ZM465.886 195.751C457.076 195.751 449.473 188.469 449.473 178.098C449.473 167.616 457.076 160.444 465.887 160.444C474.698 160.444 482.299 167.616 482.299 178.098C482.299 188.469 474.698 195.751 465.886 195.751ZM465.886 148.97C449.802 148.97 436.696 161.216 436.696 178.098C436.696 194.869 449.802 207.226 465.887 207.226C481.969 207.226 495.078 194.869 495.078 178.098C495.078 161.216 481.968 148.97 465.886 148.97Z" fill="#212226"/>
<path d="M71.8536 52.1273C69.559 54.2009 68.1893 57.6596 68.1893 62.2507V61.2128V212.713V211.715C68.1893 215.955 69.3642 219.229 71.3537 221.338L71.8616 221.825V221.827C73.472 223.282 75.537 224.055 77.9036 224.053C80.2161 224.053 82.8179 223.314 85.5637 221.755L184.813 165.272L218.904 145.869C223.234 143.405 225.665 140.227 226.071 136.989V136.976C225.665 133.731 223.234 130.555 218.905 128.092L184.81 108.69L85.564 52.2073C82.8123 50.6453 80.2087 49.9041 77.8901 49.9041C75.5262 49.9041 73.464 50.6745 71.8542 52.1273H71.8536Z" fill="#00C1FF"/>
<path d="M71.8619 221.825L71.3537 221.338C69.3642 219.229 68.1893 215.955 68.1893 211.715V212.713V61.2504V62.2507C68.1893 57.6596 69.559 54.2009 71.8536 52.1273L156.57 136.979L71.8619 221.825Z" fill="url(#paint0_linear_1_15)"/>
<path d="M184.813 165.272L156.57 136.979L184.811 108.69L218.905 128.091C223.234 130.555 225.665 133.731 226.071 136.976V136.989C225.665 140.226 223.234 143.405 218.905 145.868L184.813 165.272" fill="url(#paint1_linear_1_15)"/>
<path d="M77.9036 224.053C75.5373 224.055 73.4723 223.282 71.8622 221.827V221.824L156.571 136.979L184.813 165.272L85.5637 221.755C82.8179 223.314 80.2161 224.053 77.9036 224.053Z" fill="url(#paint2_linear_1_15)"/>
<path d="M156.57 136.979L71.8533 52.1276C73.4637 50.6748 75.5259 49.9044 77.8895 49.9044C80.2081 49.9044 82.8121 50.6453 85.5634 52.2076L184.81 108.691L156.57 136.979" fill="url(#paint3_linear_1_15)"/>
<path d="M77.9064 225.056C75.5401 225.056 73.4723 224.283 71.8619 222.828L71.8592 222.83C71.8525 222.823 71.8454 222.817 71.8379 222.812L71.3975 222.381C71.3836 222.367 71.3707 222.351 71.3544 222.336L71.8622 221.827C73.4726 223.282 75.5373 224.055 77.9043 224.053C80.2164 224.053 82.8182 223.314 85.5641 221.755L184.813 165.272L185.449 165.909L184.805 166.275L85.5637 222.755C83.0614 224.176 80.6812 224.917 78.5312 225.04C78.3231 225.05 78.1148 225.056 77.9064 225.056Z" fill="url(#paint4_linear_1_15)"/>
<path d="M71.3537 222.336C69.3642 220.227 68.1893 216.955 68.1893 212.713V211.715C68.1893 215.955 69.3642 219.229 71.3537 221.338L71.8616 221.825L71.3537 222.336Z" fill="url(#paint5_linear_1_15)"/>
<path d="M185.449 165.909L184.813 165.272L218.904 145.868C223.234 143.405 225.665 140.226 226.071 136.989C226.071 138.177 225.806 139.365 225.281 140.521C224.22 142.851 222.094 145.053 218.905 146.869L185.449 165.909" fill="url(#paint6_linear_1_15)"/>
<path d="M226.071 136.976C225.665 133.731 223.234 130.556 218.905 128.092L184.81 108.691L185.446 108.053H185.449L218.905 127.094C223.678 129.812 226.068 133.394 226.071 136.976Z" fill="url(#paint7_linear_1_15)"/>
<path d="M68.1893 62.2507V61.2042C68.1893 60.8268 68.1995 60.4578 68.2188 60.0995V60.0832C68.2188 60.0783 68.2188 60.073 68.2207 60.0675V60.0272C68.4266 56.3752 69.559 53.5265 71.3537 51.6244L71.8536 52.127C69.559 54.2009 68.1893 57.6596 68.1893 62.2507Z" fill="url(#paint8_linear_1_15)"/>
<path d="M184.81 108.691L85.5637 52.207C82.8124 50.645 80.2087 49.9041 77.8901 49.9041C75.5262 49.9041 73.464 50.6745 71.8539 52.1273L71.3541 51.6244C71.5102 51.4588 71.6724 51.2992 71.8404 51.1458C71.8456 51.1402 71.8539 51.1347 71.8592 51.1294C73.4566 49.6877 75.497 48.9173 77.8396 48.9035H77.8901C80.2087 48.9035 82.8124 49.6446 85.5637 51.2073L185.449 108.051L185.446 108.053L184.81 108.691Z" fill="url(#paint9_linear_1_15)"/>
<path d="M290.97 93.1114C287.114 93.1114 283.777 92.9228 281 92.6042V50.7699C284.884 50.17 288.809 49.8744 292.739 49.8856C308.641 49.8856 315.964 57.7076 315.964 70.4582C315.964 85.1659 307.314 93.1114 290.97 93.1114ZM293.299 55.2498C291.152 55.2498 289.325 55.3799 287.809 55.692V87.4936C288.629 87.6236 290.203 87.6822 292.414 87.6822C302.833 87.6822 308.765 81.7523 308.765 70.6467C308.765 60.7441 303.399 55.2498 293.299 55.2498ZM338.786 93.43C329.824 93.43 324.016 86.7394 324.016 77.656C324.016 68.1889 329.948 61.4398 339.294 61.4398C348.126 61.4398 354.064 67.8118 354.064 77.1553C354.064 86.7394 347.944 93.43 338.786 93.43ZM339.046 66.4204C334.123 66.4204 330.969 71.0238 330.969 77.4609C330.969 83.7744 334.188 88.3779 338.981 88.3779C343.775 88.3779 346.994 83.4558 346.994 77.3309C346.994 71.0889 343.84 66.4204 339.046 66.4204ZM405.17 62.0705L395.577 92.7343H389.327L385.353 79.418C384.365 76.1608 383.543 72.8557 382.888 69.5154H382.758C382.258 72.8574 381.308 76.206 380.3 79.418L376.073 92.7343H369.757L360.73 62.0705H367.735L371.208 76.6481C372.027 80.1202 372.717 83.3973 373.289 86.4923H373.419C373.92 83.911 374.739 80.6859 375.942 76.7132L380.3 62.077H385.854L390.023 76.4011C391.031 79.8732 391.851 83.2803 392.488 86.4988H392.67C393.112 83.3453 393.808 79.9967 394.751 76.4011L398.478 62.077L405.17 62.0705ZM440.486 92.7343H433.67V75.1267C433.67 69.7039 431.589 66.9861 427.485 66.9861C423.446 66.9861 420.669 70.4582 420.669 74.496V92.7343H413.853V70.8353C413.853 68.1239 413.788 65.2175 413.599 62.064H419.596L419.915 66.7975H420.103C421.937 63.5205 425.657 61.4398 429.826 61.4398C436.265 61.4398 440.493 66.3619 440.493 74.3724L440.486 92.7343ZM459.282 92.7343H452.46V48H459.282V92.7343ZM484.133 93.43C475.177 93.43 469.363 86.7394 469.363 77.656C469.363 68.1889 475.294 61.4398 484.634 61.4398C493.473 61.4398 499.404 67.8118 499.404 77.1553C499.411 86.7394 493.284 93.43 484.133 93.43ZM484.387 66.4204C479.463 66.4204 476.309 71.0238 476.309 77.4609C476.309 83.7744 479.535 88.3779 484.315 88.3779C489.115 88.3779 492.328 83.4558 492.328 77.3309C492.334 71.0889 489.187 66.4204 484.387 66.4204ZM526.278 92.7343L525.783 89.2037H525.601C523.52 92.0451 520.483 93.43 516.633 93.43C511.137 93.43 507.235 89.5808 507.235 84.4051C507.235 76.8367 513.797 72.9225 525.159 72.9225V72.3568C525.159 68.319 523.019 66.2968 518.792 66.2968C515.768 66.2968 513.114 67.0576 510.779 68.5726L509.394 64.0926C512.229 62.3241 515.768 61.4398 519.923 61.4398C527.936 61.4398 531.982 65.6661 531.982 74.1253V85.4194C531.982 88.5144 532.118 90.9137 532.424 92.7408L526.278 92.7343ZM525.341 77.4609C517.771 77.4609 513.973 79.2945 513.973 83.6444C513.973 86.8629 515.93 88.4364 518.649 88.4364C522.115 88.4364 525.341 85.7901 525.341 82.1944V77.4609ZM565.079 92.7343L564.761 87.8122H564.572C562.614 91.5314 559.323 93.43 554.725 93.43C547.33 93.43 541.854 86.9279 541.854 77.7795C541.854 68.1889 547.532 61.4333 555.285 61.4333C559.389 61.4333 562.296 62.8182 563.935 65.6011H564.071V48H570.894V84.4701C570.894 87.4351 570.965 90.2115 571.147 92.7343H565.079ZM564.071 74.691C564.071 70.3996 561.229 66.739 556.891 66.739C551.838 66.739 548.748 71.2189 548.748 77.5259C548.748 83.7094 551.955 87.9422 556.755 87.9422C561.041 87.9422 564.071 84.2166 564.071 79.8017V74.691ZM614.15 93.43C605.195 93.43 599.387 86.7394 599.387 77.656C599.387 68.1889 605.318 61.4398 614.658 61.4398C623.496 61.4398 629.428 67.8118 629.428 77.1553C629.434 86.7394 623.314 93.43 614.15 93.43ZM614.404 66.4204C609.487 66.4204 606.333 71.0238 606.333 77.4609C606.333 83.7744 609.552 88.3779 614.339 88.3779C619.139 88.3779 622.352 83.4558 622.352 77.3309C622.365 71.0889 619.21 66.4204 614.404 66.4204ZM666.083 92.7343H659.261V75.1267C659.261 69.7039 657.18 66.9861 653.076 66.9861C649.037 66.9861 646.266 70.4582 646.266 74.496V92.7343H639.444V70.8353C639.444 68.1239 639.379 65.2175 639.19 62.064H645.187L645.505 66.7975H645.694C647.521 63.5205 651.248 61.4333 655.411 61.4333C661.849 61.4333 666.083 66.3554 666.083 74.3659V92.7343ZM711.942 67.1811H704.443V82.0709C704.443 85.8616 705.756 87.7537 708.41 87.7537C709.613 87.7537 710.621 87.6236 711.434 87.4351L711.623 92.6107C710.303 93.1179 708.534 93.3715 706.335 93.3715C700.963 93.3715 697.75 90.4065 697.75 82.6431V67.1811H693.276V62.0705H697.75V56.4527L704.443 54.4306V62.064H711.942V67.1811ZM748.025 92.7343H741.215V75.2567C741.215 69.7689 739.14 66.9926 735.03 66.9926C731.498 66.9926 728.208 69.3918 728.208 74.2489V92.7343H721.398V48H728.208V66.4204H728.344C730.49 63.0783 733.599 61.4333 737.567 61.4333C744.057 61.4333 748.025 66.4789 748.025 74.496V92.7343ZM784.992 79.0409H764.538C764.668 84.8473 768.512 88.1243 774.202 88.1243C777.227 88.1243 780.01 87.6171 782.469 86.6743L783.529 91.4079C780.628 92.6693 777.214 93.3 773.24 93.3C763.647 93.3 757.969 87.24 757.969 77.8445C757.969 68.4425 763.783 61.3748 772.472 61.3748C780.31 61.3748 785.226 67.1811 785.226 75.9524C785.27 76.9875 785.192 78.0242 784.992 79.0409ZM778.742 74.1839C778.742 69.4503 776.355 66.1083 771.998 66.1083C768.082 66.1083 764.987 69.5154 764.544 74.1839H778.742Z" fill="#212226"/>
<defs>
<linearGradient id="paint0_linear_1_15" x1="122.328" y1="59.6496" x2="49.3216" y2="132.774" gradientUnits="userSpaceOnUse">
<stop stop-color="#00A0FF"/>
<stop offset="0.00657" stop-color="#00A1FF"/>
<stop offset="0.2601" stop-color="#00BEFF"/>
<stop offset="0.5122" stop-color="#00D2FF"/>
<stop offset="0.7604" stop-color="#00DFFF"/>
<stop offset="1" stop-color="#00E3FF"/>
</linearGradient>
<linearGradient id="paint1_linear_1_15" x1="231.346" y1="136.49" x2="65.8967" y2="136.49" gradientUnits="userSpaceOnUse">
<stop stop-color="#FFE000"/>
<stop offset="0.4087" stop-color="#FFBD00"/>
<stop offset="0.7754" stop-color="#FFA500"/>
<stop offset="1" stop-color="#FF9C00"/>
</linearGradient>
<linearGradient id="paint2_linear_1_15" x1="169.819" y1="163.879" x2="46.1034" y2="286.888" gradientUnits="userSpaceOnUse">
<stop stop-color="#FF3A44"/>
<stop offset="1" stop-color="#C31162"/>
</linearGradient>
<linearGradient id="paint3_linear_1_15" x1="50.0194" y1="39.548" x2="105.157" y2="94.455" gradientUnits="userSpaceOnUse">
<stop stop-color="#32A071"/>
<stop offset="0.0685" stop-color="#2DA771"/>
<stop offset="0.4762" stop-color="#15CF74"/>
<stop offset="0.8009" stop-color="#06E775"/>
<stop offset="1" stop-color="#00F076"/>
</linearGradient>
<linearGradient id="paint4_linear_1_15" x1="169.757" y1="183.505" x2="70.6799" y2="282.742" gradientUnits="userSpaceOnUse">
<stop stop-color="#CC2E36"/>
<stop offset="1" stop-color="#9C0E4E"/>
</linearGradient>
<linearGradient id="paint5_linear_1_15" x1="79.4748" y1="59.6493" x2="15.1569" y2="124.072" gradientUnits="userSpaceOnUse">
<stop stop-color="#008DE0"/>
<stop offset="0.00657" stop-color="#008DE0"/>
<stop offset="0.2601" stop-color="#00A7E0"/>
<stop offset="0.5122" stop-color="#00B8E0"/>
<stop offset="0.7604" stop-color="#00C4E0"/>
<stop offset="1" stop-color="#00C7E0"/>
</linearGradient>
<linearGradient id="paint6_linear_1_15" x1="231.346" y1="136.983" x2="65.8966" y2="136.983" gradientUnits="userSpaceOnUse">
<stop stop-color="#E0C500"/>
<stop offset="0.4087" stop-color="#E0A600"/>
<stop offset="0.7754" stop-color="#E09100"/>
<stop offset="1" stop-color="#E08900"/>
</linearGradient>
<linearGradient id="paint7_linear_1_15" x1="231.346" y1="136.983" x2="65.8971" y2="136.983" gradientUnits="userSpaceOnUse">
<stop stop-color="#FFE840"/>
<stop offset="0.4087" stop-color="#FFCE40"/>
<stop offset="0.7754" stop-color="#FFBC40"/>
<stop offset="1" stop-color="#FFB540"/>
</linearGradient>
<linearGradient id="paint8_linear_1_15" x1="79.405" y1="59.7659" x2="17.4555" y2="119.127" gradientUnits="userSpaceOnUse">
<stop stop-color="#40B8FF"/>
<stop offset="0.00657" stop-color="#40B9FF"/>
<stop offset="0.2601" stop-color="#40CEFF"/>
<stop offset="0.5122" stop-color="#40DDFF"/>
<stop offset="0.7604" stop-color="#40E7FF"/>
<stop offset="1" stop-color="#40EAFF"/>
</linearGradient>
<linearGradient id="paint9_linear_1_15" x1="49.8962" y1="57.4922" x2="94.1388" y2="101.807" gradientUnits="userSpaceOnUse">
<stop stop-color="#65B895"/>
<stop offset="0.0685" stop-color="#62BD95"/>
<stop offset="0.4762" stop-color="#50DB97"/>
<stop offset="0.8009" stop-color="#44ED98"/>
<stop offset="1" stop-color="#40F498"/>
</linearGradient>
</defs>
</svg>
