<svg xmlns="http://www.w3.org/2000/svg" width="924" height="275" viewBox="0 0 924 275" fill="none">
    <path d="M71.3538 222.336C69.3642 220.227 68.1893 216.955 68.1893 212.713V211.715C68.1893 215.955 69.3642 219.229 71.3538 221.338L71.8616 221.825L71.3538 222.336Z"
          fill="url(#paint0_linear_6_6)"/>
    <path d="M68.1893 62.2507V61.2042C68.1893 60.8268 68.1995 60.4578 68.2189 60.0995V60.0832C68.2189 60.0783 68.2189 60.073 68.2207 60.0675V60.0272C68.4266 56.3752 69.559 53.5265 71.3538 51.6244L71.8536 52.127C69.559 54.2009 68.1893 57.6596 68.1893 62.2507Z"
          fill="url(#paint1_linear_6_6)"/>
    <path d="M267.97 107.111C264.114 107.111 260.777 106.923 258 106.604V64.7699C261.884 64.17 265.809 63.8744 269.739 63.8856C285.641 63.8856 292.964 71.7076 292.964 84.4582C292.964 99.1659 284.314 107.111 267.97 107.111ZM270.299 69.2498C268.152 69.2498 266.325 69.3799 264.809 69.692V101.494C265.629 101.624 267.203 101.682 269.414 101.682C279.833 101.682 285.765 95.7523 285.765 84.6467C285.765 74.7441 280.399 69.2498 270.299 69.2498ZM315.786 107.43C306.824 107.43 301.016 100.739 301.016 91.656C301.016 82.1889 306.948 75.4398 316.294 75.4398C325.126 75.4398 331.064 81.8118 331.064 91.1553C331.064 100.739 324.944 107.43 315.786 107.43ZM316.046 80.4204C311.123 80.4204 307.969 85.0238 307.969 91.4609C307.969 97.7744 311.188 102.378 315.981 102.378C320.775 102.378 323.994 97.4558 323.994 91.3309C323.994 85.0889 320.84 80.4204 316.046 80.4204ZM382.17 76.0705L372.577 106.734H366.327L362.353 93.418C361.365 90.1608 360.543 86.8557 359.888 83.5154H359.758C359.258 86.8574 358.308 90.206 357.3 93.418L353.073 106.734H346.757L337.73 76.0705H344.735L348.208 90.6481C349.027 94.1202 349.717 97.3973 350.289 100.492H350.419C350.92 97.911 351.739 94.6859 352.942 90.7132L357.3 76.077H362.854L367.023 90.4011C368.031 93.8732 368.851 97.2803 369.488 100.499H369.67C370.112 97.3453 370.808 93.9967 371.751 90.4011L375.478 76.077L382.17 76.0705ZM417.486 106.734H410.67V89.1267C410.67 83.7039 408.589 80.9861 404.485 80.9861C400.446 80.9861 397.669 84.4582 397.669 88.496V106.734H390.853V84.8353C390.853 82.1239 390.788 79.2175 390.599 76.064H396.596L396.915 80.7975H397.103C398.937 77.5205 402.657 75.4398 406.826 75.4398C413.265 75.4398 417.493 80.3619 417.493 88.3724L417.486 106.734ZM436.282 106.734H429.46V62H436.282V106.734ZM461.133 107.43C452.177 107.43 446.363 100.739 446.363 91.656C446.363 82.1889 452.294 75.4398 461.634 75.4398C470.473 75.4398 476.404 81.8118 476.404 91.1553C476.411 100.739 470.284 107.43 461.133 107.43ZM461.387 80.4204C456.463 80.4204 453.309 85.0238 453.309 91.4609C453.309 97.7744 456.535 102.378 461.315 102.378C466.115 102.378 469.328 97.4558 469.328 91.3309C469.334 85.0889 466.187 80.4204 461.387 80.4204ZM503.278 106.734L502.783 103.204H502.601C500.52 106.045 497.483 107.43 493.633 107.43C488.137 107.43 484.235 103.581 484.235 98.4051C484.235 90.8367 490.797 86.9225 502.159 86.9225V86.3568C502.159 82.319 500.019 80.2968 495.792 80.2968C492.768 80.2968 490.114 81.0576 487.779 82.5726L486.394 78.0926C489.229 76.3241 492.768 75.4398 496.923 75.4398C504.936 75.4398 508.982 79.6661 508.982 88.1253V99.4194C508.982 102.514 509.118 104.914 509.424 106.741L503.278 106.734ZM502.341 91.4609C494.771 91.4609 490.973 93.2945 490.973 97.6444C490.973 100.863 492.93 102.436 495.649 102.436C499.115 102.436 502.341 99.7901 502.341 96.1944V91.4609ZM542.079 106.734L541.761 101.812H541.572C539.614 105.531 536.323 107.43 531.725 107.43C524.33 107.43 518.854 100.928 518.854 91.7795C518.854 82.1889 524.532 75.4333 532.285 75.4333C536.389 75.4333 539.296 76.8182 540.935 79.6011H541.071V62H547.894V98.4701C547.894 101.435 547.965 104.211 548.147 106.734H542.079ZM541.071 88.691C541.071 84.3996 538.229 80.739 533.891 80.739C528.838 80.739 525.748 85.2189 525.748 91.5259C525.748 97.7094 528.955 101.942 533.755 101.942C538.041 101.942 541.071 98.2166 541.071 93.8017V88.691ZM591.15 107.43C582.195 107.43 576.387 100.739 576.387 91.656C576.387 82.1889 582.318 75.4398 591.658 75.4398C600.496 75.4398 606.428 81.8118 606.428 91.1553C606.434 100.739 600.314 107.43 591.15 107.43ZM591.404 80.4204C586.487 80.4204 583.333 85.0238 583.333 91.4609C583.333 97.7744 586.552 102.378 591.339 102.378C596.139 102.378 599.352 97.4558 599.352 91.3309C599.365 85.0889 596.21 80.4204 591.404 80.4204ZM643.083 106.734H636.261V89.1267C636.261 83.7039 634.18 80.9861 630.076 80.9861C626.037 80.9861 623.266 84.4582 623.266 88.496V106.734H616.444V84.8353C616.444 82.1239 616.379 79.2175 616.19 76.064H622.187L622.505 80.7975H622.694C624.521 77.5205 628.248 75.4333 632.411 75.4333C638.849 75.4333 643.083 80.3554 643.083 88.3659V106.734ZM688.942 81.1811H681.443V96.0709C681.443 99.8616 682.756 101.754 685.41 101.754C686.613 101.754 687.621 101.624 688.434 101.435L688.623 106.611C687.303 107.118 685.534 107.371 683.335 107.371C677.963 107.371 674.75 104.407 674.75 96.6431V81.1811H670.276V76.0705H674.75V70.4527L681.443 68.4306V76.064H688.942V81.1811ZM725.025 106.734H718.215V89.2567C718.215 83.7689 716.14 80.9926 712.03 80.9926C708.498 80.9926 705.208 83.3918 705.208 88.2489V106.734H698.398V62H705.208V80.4204H705.344C707.49 77.0783 710.599 75.4333 714.567 75.4333C721.057 75.4333 725.025 80.4789 725.025 88.496V106.734ZM761.992 93.0409H741.538C741.668 98.8473 745.512 102.124 751.202 102.124C754.227 102.124 757.01 101.617 759.469 100.674L760.529 105.408C757.628 106.669 754.214 107.3 750.24 107.3C740.647 107.3 734.969 101.24 734.969 91.8445C734.969 82.4425 740.783 75.3748 749.472 75.3748C757.31 75.3748 762.226 81.1811 762.226 89.9524C762.27 90.9875 762.192 92.0242 761.992 93.0409ZM755.742 88.1839C755.742 83.4503 753.355 80.1083 748.998 80.1083C745.082 80.1083 741.987 83.5154 741.544 88.1839H755.742Z"
          fill="#212226"/>
    <path d="M102.428 49C101.751 48.9995 101.073 49.0175 100.396 49.054C79.8869 50.1578 63.5851 67.6 63.9848 88.0123C64.0207 89.8345 64.1937 91.6465 64.4988 93.4341L32.3623 99.2376L32 199.631L173.214 224.81L207.974 213.512L206.888 85.357L188.784 82.1291L173.577 73.7363L155.486 77.0029C151.032 64.0599 139.848 53.6786 125.373 53.6607C128.897 56.1002 130.913 58.2482 132.189 60.1955C142.585 62.7592 146.524 70.1473 149.643 78.0587L86.6071 89.4419C89.0476 72.1133 101.026 60.6024 113.334 58.0621L105.393 55.989C94.2007 60.08 81.3546 73.5214 81.8147 90.3069L68.4511 92.7206C68.1644 91.0814 68.0024 89.4185 67.9696 87.7458C67.6157 69.6687 81.9268 54.222 99.9345 53.2443C100.568 53.21 101.201 53.1941 101.833 53.1968C117.886 53.2649 131.096 65.0812 132.966 81.0442L137.972 80.1309C135.698 62.2002 120.641 49.0126 102.428 49ZM136.462 118.122V150.323H95.9082V123.287L136.462 118.122ZM94.6408 123.449V150.323H62.9586V127.484L94.6408 123.449ZM62.9586 151.452H94.6408V178.627L62.9586 174.452V151.452ZM95.9082 151.452H136.462V184.136L95.9082 178.793V151.452Z"
          fill="#212226" stroke="#212226" stroke-opacity="0.84"/>
    <path d="M294.592 142.793H303.784L310.003 163.459L317.213 188.535C318.715 180.522 320.578 172.135 322.801 163.373L328.299 141.929H339.835L324.333 200.208H311.175L305.677 181.791C304.175 176.891 302.883 172.567 301.802 168.82C300.78 165.073 300.089 162.566 299.729 161.298L299.278 159.309C298.437 163.344 296.334 170.838 292.969 181.791L287.291 200.208H274.223L258 141.929H269.987L275.665 163.459C276.626 167.322 277.588 171.328 278.549 175.478C279.51 179.629 280.231 182.799 280.712 184.99L281.433 188.362C283.356 181.099 285.699 172.798 288.463 163.459L294.592 142.793Z"
          fill="#212226"/>
    <path d="M348.398 200.208V156.369H359.213V200.208H348.398ZM347.316 143.226C347.316 141.496 347.947 140.026 349.209 138.816C350.471 137.605 352.003 137 353.806 137C355.608 137 357.14 137.605 358.402 138.816C359.664 140.026 360.295 141.496 360.295 143.226C360.295 145.013 359.664 146.512 358.402 147.722C357.14 148.933 355.608 149.538 353.806 149.538C352.003 149.538 350.471 148.933 349.209 147.722C347.947 146.512 347.316 145.013 347.316 143.226Z"
          fill="#212226"/>
    <path d="M382.174 156.369V163.892C384.758 158.531 389.445 155.85 396.234 155.85C400.801 155.85 404.406 157.176 407.049 159.828C409.693 162.479 411.015 166.226 411.015 171.068V200.208H400.2V173.23C400.2 170.348 399.479 168.186 398.037 166.745C396.595 165.246 394.642 164.497 392.179 164.497C389.355 164.497 386.981 165.563 385.059 167.696C383.136 169.771 382.174 172.769 382.174 176.689V200.208H371.359V156.369H382.174Z"
          fill="#212226"/>
    <path d="M441.967 191.907C445.212 191.907 447.916 190.726 450.079 188.362C452.242 185.941 453.323 182.453 453.323 177.899C453.323 173.461 452.182 170.146 449.898 167.956C447.615 165.707 445.002 164.583 442.057 164.583C438.933 164.583 436.289 165.823 434.126 168.301C432.023 170.723 430.972 174.124 430.972 178.505C430.972 182.482 432.023 185.71 434.126 188.189C436.229 190.668 438.843 191.907 441.967 191.907ZM453.323 139.075H464.139V200.208H453.323V193.377C450.199 198.335 445.572 200.814 439.444 200.814C433.435 200.814 428.659 198.623 425.114 194.242C421.629 189.861 419.886 184.558 419.886 178.332C419.886 171.414 421.719 165.938 425.384 161.903C429.109 157.81 433.856 155.764 439.624 155.764C445.572 155.764 450.139 158.214 453.323 163.113V139.075Z"
          fill="#212226"/>
    <path d="M495.39 200.9C488.48 200.9 483.073 198.825 479.167 194.674C475.322 190.524 473.399 185.22 473.399 178.764C473.399 172.077 475.412 166.572 479.438 162.249C483.463 157.868 488.781 155.677 495.39 155.677C502.42 155.677 507.858 157.81 511.703 162.076C515.548 166.284 517.471 171.645 517.471 178.159C517.471 184.788 515.518 190.236 511.613 194.501C507.767 198.767 502.36 200.9 495.39 200.9ZM495.39 164.151C491.965 164.151 489.322 165.506 487.459 168.215C485.656 170.924 484.755 174.325 484.755 178.418C484.755 182.453 485.686 185.826 487.549 188.535C489.412 191.244 492.055 192.599 495.48 192.599C499.025 192.599 501.699 191.273 503.501 188.622C505.304 185.97 506.205 182.598 506.205 178.505C506.205 174.297 505.334 170.867 503.592 168.215C501.849 165.506 499.115 164.151 495.39 164.151Z"
          fill="#212226"/>
    <path d="M536.527 200.208L522.106 156.369H533.372L537.518 170.809C538.72 174.96 539.711 178.678 540.492 181.963C541.333 185.192 541.844 187.382 542.024 188.535L542.385 190.264C542.986 186.748 544.728 180.263 547.612 170.809L552.028 156.369H561.852L566.269 170.809C567.59 175.075 568.672 178.851 569.513 182.136C570.414 185.365 570.985 187.526 571.225 188.622L571.496 190.351C572.097 186.95 573.869 180.436 576.813 170.809L581.139 156.369H591.955L577.444 200.208H565.728L561.672 185.855C560.591 182.108 559.659 178.706 558.878 175.651C558.097 172.538 557.586 170.406 557.346 169.253L556.985 167.437C556.204 171.241 554.642 177.381 552.299 185.855L548.243 200.208H536.527Z"
          fill="#212226"/>
    <path d="M626.273 157.752V166.918C623.269 165.189 619.514 164.324 615.007 164.324C613.145 164.324 611.673 164.727 610.591 165.535C609.57 166.284 609.059 167.264 609.059 168.474C609.059 168.936 609.119 169.368 609.239 169.771C609.42 170.175 609.69 170.578 610.05 170.982C610.471 171.328 610.862 171.645 611.222 171.933C611.583 172.221 612.093 172.538 612.754 172.884C613.415 173.173 613.986 173.432 614.467 173.663C614.947 173.893 615.608 174.181 616.449 174.527C617.291 174.873 617.952 175.161 618.432 175.392C621.617 176.891 624.14 178.562 626.003 180.407C627.866 182.252 628.797 184.644 628.797 187.584C628.797 191.677 627.265 194.876 624.2 197.182C621.136 199.488 617.05 200.641 611.943 200.641C606.295 200.641 601.729 199.747 598.244 197.96V188.449C602.27 191.043 606.626 192.34 611.312 192.34C613.295 192.34 614.827 191.994 615.909 191.302C617.05 190.553 617.621 189.544 617.621 188.276C617.621 187.526 617.441 186.863 617.08 186.287C616.72 185.653 616.029 185.047 615.007 184.471C613.986 183.895 613.175 183.491 612.574 183.26C612.033 182.972 610.922 182.482 609.239 181.791C609.059 181.733 608.909 181.675 608.789 181.618C608.729 181.56 608.608 181.502 608.428 181.445C608.248 181.387 608.098 181.329 607.978 181.272C601.308 178.389 597.973 174.239 597.973 168.82C597.973 164.785 599.566 161.615 602.75 159.309C605.935 157.003 609.93 155.85 614.737 155.85C619.364 155.85 623.209 156.484 626.273 157.752Z"
          fill="#212226"/>
    <path d="M671.59 171.587H677.989C682.134 171.587 685.229 170.636 687.272 168.734C689.315 166.832 690.336 164.266 690.336 161.038C690.336 157.868 689.315 155.389 687.272 153.602C685.229 151.757 682.225 150.835 678.259 150.835H671.59V171.587ZM660.234 141.929H679.25C686.1 141.929 691.568 143.716 695.653 147.29C699.799 150.864 701.872 155.447 701.872 161.038C701.872 166.976 699.739 171.703 695.473 175.219C691.267 178.678 685.95 180.407 679.521 180.407H671.59V200.208H660.234V141.929Z"
          fill="#212226"/>
    <path d="M720.678 139.075V163.805C723.142 158.502 727.798 155.85 734.648 155.85C739.094 155.85 742.669 157.205 745.373 159.914C748.137 162.566 749.519 166.428 749.519 171.501V200.208H738.704V173.317C738.704 170.55 737.953 168.388 736.451 166.832C735.009 165.275 733.116 164.497 730.773 164.497C728.189 164.497 725.846 165.448 723.743 167.35C721.7 169.253 720.678 172.365 720.678 176.689V200.208H709.863V139.075H720.678Z"
          fill="#212226"/>
    <path d="M780.381 200.9C773.471 200.9 768.064 198.825 764.158 194.674C760.313 190.524 758.39 185.22 758.39 178.764C758.39 172.077 760.403 166.572 764.429 162.249C768.454 157.868 773.772 155.677 780.381 155.677C787.411 155.677 792.849 157.81 796.694 162.076C800.54 166.284 802.462 171.645 802.462 178.159C802.462 184.788 800.51 190.236 796.604 194.501C792.759 198.767 787.351 200.9 780.381 200.9ZM780.381 164.151C776.956 164.151 774.313 165.506 772.45 168.215C770.648 170.924 769.746 174.325 769.746 178.418C769.746 182.453 770.678 185.826 772.54 188.535C774.403 191.244 777.046 192.599 780.471 192.599C784.016 192.599 786.69 191.273 788.493 188.622C790.295 185.97 791.196 182.598 791.196 178.505C791.196 174.297 790.325 170.867 788.583 168.215C786.84 165.506 784.106 164.151 780.381 164.151Z"
          fill="#212226"/>
    <path d="M822.599 156.369V163.892C825.183 158.531 829.87 155.85 836.659 155.85C841.226 155.85 844.831 157.176 847.474 159.828C850.118 162.479 851.44 166.226 851.44 171.068V200.208H840.625V173.23C840.625 170.348 839.904 168.186 838.462 166.745C837.02 165.246 835.067 164.497 832.603 164.497C829.779 164.497 827.406 165.563 825.483 167.696C823.561 169.771 822.599 172.769 822.599 176.689V200.208H811.784V156.369H822.599Z"
          fill="#212226"/>
    <path d="M890.233 174.7V173.403C890.113 170.578 889.302 168.33 887.8 166.659C886.358 164.929 884.225 164.065 881.401 164.065C878.817 164.065 876.564 164.987 874.641 166.832C872.779 168.619 871.577 171.241 871.036 174.7H890.233ZM897.624 188.794V197.787C894.439 199.689 889.843 200.641 883.834 200.641C876.564 200.641 870.826 198.565 866.62 194.415C862.414 190.264 860.311 184.903 860.311 178.332C860.311 171.357 862.294 165.88 866.259 161.903C870.225 157.925 875.182 155.937 881.13 155.937C887.079 155.937 891.795 157.666 895.28 161.125C898.765 164.583 900.508 169.627 900.508 176.257C900.508 177.871 900.297 179.946 899.877 182.482H871.216C871.998 185.653 873.62 188.074 876.083 189.746C878.607 191.417 881.731 192.253 885.457 192.253C890.263 192.253 894.319 191.1 897.624 188.794Z"
          fill="#212226"/>
    <defs>
        <linearGradient id="paint0_linear_6_6" x1="79.4749" y1="59.6493" x2="15.1569" y2="124.072"
                        gradientUnits="userSpaceOnUse">
            <stop stop-color="#008DE0"/>
            <stop offset="0.00657" stop-color="#008DE0"/>
            <stop offset="0.2601" stop-color="#00A7E0"/>
            <stop offset="0.5122" stop-color="#00B8E0"/>
            <stop offset="0.7604" stop-color="#00C4E0"/>
            <stop offset="1" stop-color="#00C7E0"/>
        </linearGradient>
        <linearGradient id="paint1_linear_6_6" x1="79.405" y1="59.7659" x2="17.4555" y2="119.127"
                        gradientUnits="userSpaceOnUse">
            <stop stop-color="#40B8FF"/>
            <stop offset="0.00657" stop-color="#40B9FF"/>
            <stop offset="0.2601" stop-color="#40CEFF"/>
            <stop offset="0.5122" stop-color="#40DDFF"/>
            <stop offset="0.7604" stop-color="#40E7FF"/>
            <stop offset="1" stop-color="#40EAFF"/>
        </linearGradient>
    </defs>
</svg>