<svg xmlns="http://www.w3.org/2000/svg" width="1116" height="839" viewBox="0 0 1116 839" fill="none">
    <g clip-path="url(#clip0_31_81)">
        <path d="M150 312V258C150 218.236 182.235 186 222 186H376C411.346 186 440 157.346 440 122C440 86.654 468.654 58 504 58H656C691.346 58 720 86.654 720 122C720 157.346 748.654 186 784 186H936C975.765 186 1008 218.235 1008 258V694C1008 733.764 979.765 805 940 805H580" stroke="#292C31" stroke-width="32"/>
        <path d="M628 118H530C516.745 118 506 128.745 506 142V168C506 181.255 516.745 192 530 192H628C641.255 192 652 181.255 652 168V142C652 128.745 641.255 118 628 118Z" stroke="#292C31" stroke-width="8"/>
        <path d="M920.135 244H889C880.163 244 873 251.163 873 260C873 268.837 880.163 276 889 276H920.135C928.972 276 936.135 268.837 936.135 260C936.135 251.163 928.972 244 920.135 244Z" fill="#292C31"/>
        <path d="M653 398C653 411.255 642.255 422 629 422C615.745 422 605 411.255 605 398C605 384.745 615.745 374 629 374C642.255 374 653 384.745 653 398Z" fill="#292C31"/>
        <path d="M729.77 548.516C786.84 457.185 759.065 336.883 667.734 279.813C576.403 222.743 456.101 250.517 399.031 341.848" stroke="#292C31" stroke-width="24"/>
        <path d="M858 260C858 268.837 850.837 276 842 276C833.163 276 826 268.837 826 260C826 251.163 833.163 244 842 244C850.837 244 858 251.163 858 260Z" fill="#292C31"/>
        <path d="M16.888 490.552C24.1627 512.211 38.216 523.04 59.048 523.04C73.1013 523.04 82.856 519.072 88.312 511.136C93.9333 503.035 96.744 491.957 96.744 477.904V354.4H104.184V477.904C104.184 512.955 89.1387 530.48 59.048 530.48C44.8293 530.48 33.8347 526.925 26.064 519.816C18.4587 512.707 12.424 502.952 7.96 490.552H16.888ZM164.673 520.56H245.521L194.681 400.776L140.617 528H132.681L194.681 381.68L256.681 528H164.673V520.56ZM284.974 528V384.16H292.414L373.262 514.36V384.16H380.702V528H373.262L292.414 397.552V528H284.974ZM427.865 384.16H435.305V528H427.865V384.16ZM482.357 528V384.16H489.797V528H482.357ZM574.117 528L497.733 452.112L566.181 384.16H576.845L508.397 452.112L584.781 528H574.117ZM607.014 469.72V462.28H656.118V469.72H607.014ZM48.88 730.56H146.592V582.008L90.792 701.544L34.992 581.76V738L27.552 737.752V564.152H34.992L90.792 683.936L146.592 564.4L154.032 564.152V738L48.88 737.752V730.56ZM298.37 723.368C289.277 734.776 274.397 740.48 253.73 740.48C233.063 740.48 218.266 734.611 209.338 722.872C200.41 711.133 195.946 692.203 195.946 666.08C195.946 639.957 200.41 621.027 209.338 609.288C218.266 597.549 233.063 591.68 253.73 591.68C277.703 591.68 293.989 599.533 302.586 615.24L241.826 666.08H230.17L292.914 613.752C285.639 603.997 272.578 599.12 253.73 599.12C245.463 599.12 238.519 600.029 232.898 601.848C227.277 603.501 222.069 606.725 217.274 611.52C212.645 616.149 209.173 623.011 206.858 632.104C204.543 641.032 203.386 652.357 203.386 666.08C203.386 679.803 204.543 691.211 206.858 700.304C209.173 709.232 212.645 716.093 217.274 720.888C222.069 725.517 227.277 728.741 232.898 730.56C238.519 732.213 245.463 733.04 253.73 733.04C272.578 733.04 285.639 728.163 292.914 718.408L298.37 723.368ZM338.013 738V594.16H345.453L426.301 724.36V594.16H433.741V738H426.301L345.453 607.552V738H338.013ZM573.904 594.16V601.6H521.824V738H514.384V601.6H462.304V594.16H573.904ZM698.706 723.368C689.613 734.776 674.733 740.48 654.066 740.48C633.399 740.48 618.602 734.611 609.674 722.872C600.746 711.133 596.282 692.203 596.282 666.08C596.282 639.957 600.746 621.027 609.674 609.288C618.602 597.549 633.399 591.68 654.066 591.68C678.039 591.68 694.325 599.533 702.922 615.24L642.162 666.08H630.506L693.25 613.752C685.975 603.997 672.914 599.12 654.066 599.12C645.799 599.12 638.855 600.029 633.234 601.848C627.613 603.501 622.405 606.725 617.61 611.52C612.981 616.149 609.509 623.011 607.194 632.104C604.879 641.032 603.722 652.357 603.722 666.08C603.722 679.803 604.879 691.211 607.194 700.304C609.509 709.232 612.981 716.093 617.61 720.888C622.405 725.517 627.613 728.741 633.234 730.56C638.855 732.213 645.799 733.04 654.066 733.04C672.914 733.04 685.975 728.163 693.25 718.408L698.706 723.368ZM821.181 730.56V738H738.349V594.16H745.789V730.56H821.181Z" fill="#292C31"/>
        <path d="M243.032 828.768C239.448 828.768 236.013 828.299 232.728 827.36C229.443 826.379 226.797 825.12 224.792 823.584L228.312 815.776C230.232 817.141 232.493 818.272 235.096 819.168C237.741 820.021 240.408 820.448 243.096 820.448C245.144 820.448 246.787 820.256 248.024 819.872C249.304 819.445 250.243 818.869 250.84 818.144C251.437 817.419 251.736 816.587 251.736 815.648C251.736 814.453 251.267 813.515 250.328 812.832C249.389 812.107 248.152 811.531 246.616 811.104C245.08 810.635 243.373 810.208 241.496 809.824C239.661 809.397 237.805 808.885 235.928 808.288C234.093 807.691 232.408 806.923 230.872 805.984C229.336 805.045 228.077 803.808 227.096 802.272C226.157 800.736 225.688 798.773 225.688 796.384C225.688 793.824 226.371 791.499 227.736 789.408C229.144 787.275 231.235 785.589 234.008 784.352C236.824 783.072 240.344 782.432 244.568 782.432C247.384 782.432 250.157 782.773 252.888 783.456C255.619 784.096 258.029 785.077 260.12 786.4L256.92 794.272C254.829 793.077 252.739 792.203 250.648 791.648C248.557 791.051 246.509 790.752 244.504 790.752C242.499 790.752 240.856 790.987 239.576 791.456C238.296 791.925 237.379 792.544 236.824 793.312C236.269 794.037 235.992 794.891 235.992 795.872C235.992 797.024 236.461 797.963 237.4 798.688C238.339 799.371 239.576 799.925 241.112 800.352C242.648 800.779 244.333 801.205 246.168 801.632C248.045 802.059 249.901 802.549 251.736 803.104C253.613 803.659 255.32 804.405 256.856 805.344C258.392 806.283 259.629 807.52 260.568 809.056C261.549 810.592 262.04 812.533 262.04 814.88C262.04 817.397 261.336 819.701 259.928 821.792C258.52 823.883 256.408 825.568 253.592 826.848C250.819 828.128 247.299 828.768 243.032 828.768ZM288.019 828V791.648H273.683V783.2H312.723V791.648H298.387V828H288.019ZM347.696 828.768C341.339 828.768 336.368 826.997 332.784 823.456C329.2 819.915 327.408 814.859 327.408 808.288V783.2H337.776V807.904C337.776 812.171 338.651 815.243 340.4 817.12C342.149 818.997 344.603 819.936 347.76 819.936C350.917 819.936 353.371 818.997 355.12 817.12C356.869 815.243 357.744 812.171 357.744 807.904V783.2H367.984V808.288C367.984 814.859 366.192 819.915 362.608 823.456C359.024 826.997 354.053 828.768 347.696 828.768ZM388.47 828V783.2H408.822C413.686 783.2 417.974 784.139 421.686 786.016C425.398 787.851 428.299 790.432 430.39 793.76C432.48 797.088 433.526 801.035 433.526 805.6C433.526 810.123 432.48 814.069 430.39 817.44C428.299 820.768 425.398 823.371 421.686 825.248C417.974 827.083 413.686 828 408.822 828H388.47ZM398.838 819.488H408.31C411.296 819.488 413.878 818.933 416.054 817.824C418.272 816.672 419.979 815.051 421.174 812.96C422.411 810.869 423.03 808.416 423.03 805.6C423.03 802.741 422.411 800.288 421.174 798.24C419.979 796.149 418.272 794.549 416.054 793.44C413.878 792.288 411.296 791.712 408.31 791.712H398.838V819.488ZM451.584 828V783.2H461.952V828H451.584ZM504.584 828.768C501.043 828.768 497.758 828.192 494.728 827.04C491.742 825.888 489.139 824.267 486.92 822.176C484.744 820.085 483.038 817.632 481.8 814.816C480.606 812 480.008 808.928 480.008 805.6C480.008 802.272 480.606 799.2 481.8 796.384C483.038 793.568 484.766 791.115 486.984 789.024C489.203 786.933 491.806 785.312 494.792 784.16C497.779 783.008 501.022 782.432 504.52 782.432C508.062 782.432 511.304 783.008 514.248 784.16C517.235 785.312 519.817 786.933 521.993 789.024C524.211 791.115 525.939 793.568 527.176 796.384C528.414 799.157 529.033 802.229 529.033 805.6C529.033 808.928 528.414 812.021 527.176 814.88C525.939 817.696 524.211 820.149 521.993 822.24C519.817 824.288 517.235 825.888 514.248 827.04C511.304 828.192 508.083 828.768 504.584 828.768ZM504.52 819.936C506.526 819.936 508.36 819.595 510.024 818.912C511.731 818.229 513.224 817.248 514.504 815.968C515.784 814.688 516.766 813.173 517.448 811.424C518.174 809.675 518.536 807.733 518.536 805.6C518.536 803.467 518.174 801.525 517.448 799.776C516.766 798.027 515.784 796.512 514.504 795.232C513.267 793.952 511.795 792.971 510.088 792.288C508.382 791.605 506.526 791.264 504.52 791.264C502.515 791.264 500.659 791.605 498.952 792.288C497.288 792.971 495.816 793.952 494.536 795.232C493.256 796.512 492.254 798.027 491.528 799.776C490.846 801.525 490.504 803.467 490.504 805.6C490.504 807.691 490.846 809.632 491.528 811.424C492.254 813.173 493.235 814.688 494.472 815.968C495.752 817.248 497.246 818.229 498.952 818.912C500.659 819.595 502.515 819.936 504.52 819.936Z" fill="#0D5ADB"/>
    </g>
    <defs>
        <clipPath id="clip0_31_81">
            <rect width="1116" height="839" fill="white"/>
        </clipPath>
    </defs>
</svg>