<svg width="1116" height="978" viewBox="0 0 1116 978" fill="none" xmlns="http://www.w3.org/2000/svg">
    <g clip-path="url(#clip0_31_81)">
        <path d="M84 350.123V287.593C84 241.548 119.616 204.22 163.552 204.22H333.706C372.76 204.22 404.42 171.039 404.42 130.11C404.42 89.1803 436.079 56 475.133 56H643.077C682.131 56 713.79 89.1803 713.79 130.11C713.79 171.039 745.45 204.22 784.503 204.22H952.448C996.384 204.22 1032 241.547 1032 287.593V792.466C1032 838.511 1000.8 921 956.867 921H559.105"
              stroke="white" stroke-width="32"/>
        <path d="M607 123H509C495.745 123 485 133.745 485 147V173C485 186.255 495.745 197 509 197H607C620.255 197 631 186.255 631 173V147C631 133.745 620.255 123 607 123Z"
              stroke="#F3F7FE" stroke-opacity="0.77" stroke-width="8"/>
        <path d="M952.135 259H921C912.163 259 905 266.163 905 275C905 283.837 912.163 291 921 291H952.135C960.972 291 968.135 283.837 968.135 275C968.135 266.163 960.972 259 952.135 259Z"
              fill="#F3F7FE" fill-opacity="0.77"/>
        <path d="M679 392C679 405.255 668.255 416 655 416C641.745 416 631 405.255 631 392C631 378.745 641.745 368 655 368C668.255 368 679 378.745 679 392Z"
              fill="#F3F7FE" fill-opacity="0.77"/>
        <path d="M734.739 578.038C791.809 486.707 764.035 366.404 672.704 309.334C581.373 252.264 461.07 280.038 404 371.369"
              stroke="#F3F7FE" stroke-opacity="0.77" stroke-width="24"/>
        <path d="M870 275C870 283.837 862.837 291 854 291C845.163 291 838 283.837 838 275C838 266.163 845.163 259 854 259C862.837 259 870 266.163 870 275Z"
              fill="#F3F7FE" fill-opacity="0.77"/>
        <path d="M-10.88 548.23C-2.96 571.81 12.34 583.6 35.02 583.6C50.32 583.6 60.94 579.28 66.88 570.64C73 561.82 76.06 549.76 76.06 534.46V400H84.16V534.46C84.16 572.62 67.78 591.7 35.02 591.7C19.54 591.7 7.57 587.83 -0.889999 580.09C-9.17 572.35 -15.74 561.73 -20.6 548.23H-10.88ZM150.015 580.9H238.035L182.685 450.49L123.825 589H115.185L182.685 429.7L250.185 589H150.015V580.9ZM280.988 589V432.4H289.088L377.108 574.15V432.4H385.208V589H377.108L289.088 446.98V589H280.988ZM436.554 432.4H444.654V589H436.554V432.4ZM495.88 589V432.4H503.98V589H495.88ZM595.78 589L512.62 506.38L587.14 432.4H598.75L524.23 506.38L607.39 589H595.78ZM631.596 525.55V517.45H685.056V525.55H631.596ZM23.95 790.9H130.33V629.17L69.58 759.31L8.83 628.9V799L0.730002 798.73V609.73H8.83L69.58 740.14L130.33 610L138.43 609.73V799L23.95 798.73V790.9ZM295.572 783.07C285.672 795.49 269.472 801.7 246.972 801.7C224.472 801.7 208.362 795.31 198.642 782.53C188.922 769.75 184.062 749.14 184.062 720.7C184.062 692.26 188.922 671.65 198.642 658.87C208.362 646.09 224.472 639.7 246.972 639.7C273.072 639.7 290.802 648.25 300.162 665.35L234.012 720.7H221.322L289.632 663.73C281.712 653.11 267.492 647.8 246.972 647.8C237.972 647.8 230.412 648.79 224.292 650.77C218.172 652.57 212.502 656.08 207.282 661.3C202.242 666.34 198.462 673.81 195.942 683.71C193.422 693.43 192.162 705.76 192.162 720.7C192.162 735.64 193.422 748.06 195.942 757.96C198.462 767.68 202.242 775.15 207.282 780.37C212.502 785.41 218.172 788.92 224.292 790.9C230.412 792.7 237.972 793.6 246.972 793.6C267.492 793.6 281.712 788.29 289.632 777.67L295.572 783.07ZM338.732 799V642.4H346.832L434.852 784.15V642.4H442.952V799H434.852L346.832 656.98V799H338.732ZM595.548 642.4V650.5H538.848V799H530.748V650.5H474.048V642.4H595.548ZM731.422 783.07C721.522 795.49 705.322 801.7 682.822 801.7C660.322 801.7 644.212 795.31 634.492 782.53C624.772 769.75 619.912 749.14 619.912 720.7C619.912 692.26 624.772 671.65 634.492 658.87C644.212 646.09 660.322 639.7 682.822 639.7C708.922 639.7 726.652 648.25 736.012 665.35L669.862 720.7H657.172L725.482 663.73C717.562 653.11 703.342 647.8 682.822 647.8C673.822 647.8 666.262 648.79 660.142 650.77C654.022 652.57 648.352 656.08 643.132 661.3C638.092 666.34 634.312 673.81 631.792 683.71C629.272 693.43 628.012 705.76 628.012 720.7C628.012 735.64 629.272 748.06 631.792 757.96C634.312 767.68 638.092 775.15 643.132 780.37C648.352 785.41 654.022 788.92 660.142 790.9C666.262 792.7 673.822 793.6 682.822 793.6C703.342 793.6 717.562 788.29 725.482 777.67L731.422 783.07ZM864.762 790.9V799H774.582V642.4H782.682V790.9H864.762Z"
              fill="#F6F7FB"/>
        <path d="M33.8 958.6C27.9333 958.6 22.2667 957.933 16.8 956.6C11.3333 955.267 6.83333 953.533 3.3 951.4L10.9 934.2C14.2333 936.133 17.9333 937.7 22 938.9C26.1333 940.033 30.1333 940.6 34 940.6C36.2667 940.6 38.0333 940.467 39.3 940.2C40.6333 939.867 41.6 939.433 42.2 938.9C42.8 938.3 43.1 937.6 43.1 936.8C43.1 935.533 42.4 934.533 41 933.8C39.6 933.067 37.7333 932.467 35.4 932C33.1333 931.467 30.6333 930.933 27.9 930.4C25.1667 929.8 22.4 929.033 19.6 928.1C16.8667 927.167 14.3333 925.933 12 924.4C9.73333 922.867 7.9 920.867 6.5 918.4C5.1 915.867 4.4 912.733 4.4 909C4.4 904.667 5.6 900.733 8 897.2C10.4667 893.6 14.1 890.733 18.9 888.6C23.7667 886.467 29.8 885.4 37 885.4C41.7333 885.4 46.4 885.9 51 886.9C55.6 887.9 59.7333 889.433 63.4 891.5L56.3 908.6C52.8333 906.867 49.4667 905.567 46.2 904.7C43 903.833 39.8667 903.4 36.8 903.4C34.5333 903.4 32.7333 903.6 31.4 904C30.0667 904.4 29.1 904.933 28.5 905.6C27.9667 906.267 27.7 907 27.7 907.8C27.7 909 28.4 909.967 29.8 910.7C31.2 911.367 33.0333 911.933 35.3 912.4C37.6333 912.867 40.1667 913.367 42.9 913.9C45.7 914.433 48.4667 915.167 51.2 916.1C53.9333 917.033 56.4333 918.267 58.7 919.8C61.0333 921.333 62.9 923.333 64.3 925.8C65.7 928.267 66.4 931.333 66.4 935C66.4 939.267 65.1667 943.2 62.7 946.8C60.3 950.333 56.7 953.2 51.9 955.4C47.1 957.533 41.0667 958.6 33.8 958.6ZM103.646 957V905.3H83.1461V887H147.746V905.3H127.246V957H103.646ZM202.399 958.6C191.666 958.6 183.299 955.7 177.299 949.9C171.299 944.1 168.299 935.967 168.299 925.5V887H191.899V924.8C191.899 930.133 192.866 933.933 194.799 936.2C196.733 938.4 199.333 939.5 202.599 939.5C205.933 939.5 208.533 938.4 210.399 936.2C212.333 933.933 213.299 930.133 213.299 924.8V887H236.499V925.5C236.499 935.967 233.499 944.1 227.499 949.9C221.499 955.7 213.133 958.6 202.399 958.6ZM263.317 957V887H297.817C305.617 887 312.484 888.433 318.417 891.3C324.351 894.1 328.984 898.1 332.317 903.3C335.651 908.5 337.317 914.7 337.317 921.9C337.317 929.167 335.651 935.433 332.317 940.7C328.984 945.9 324.351 949.933 318.417 952.8C312.484 955.6 305.617 957 297.817 957H263.317ZM286.917 938.6H296.817C300.151 938.6 303.051 937.967 305.517 936.7C308.051 935.433 310.017 933.567 311.417 931.1C312.817 928.567 313.517 925.5 313.517 921.9C313.517 918.367 312.817 915.367 311.417 912.9C310.017 910.433 308.051 908.567 305.517 907.3C303.051 906.033 300.151 905.4 296.817 905.4H286.917V938.6ZM361.934 957V887H385.534V957H361.934ZM449.595 958.6C443.929 958.6 438.662 957.7 433.795 955.9C428.995 954.1 424.829 951.567 421.295 948.3C417.762 944.967 414.995 941.067 412.995 936.6C411.062 932.133 410.095 927.267 410.095 922C410.095 916.667 411.062 911.8 412.995 907.4C414.995 902.933 417.762 899.067 421.295 895.8C424.829 892.467 428.995 889.9 433.795 888.1C438.662 886.3 443.929 885.4 449.595 885.4C455.329 885.4 460.595 886.3 465.395 888.1C470.195 889.9 474.362 892.467 477.895 895.8C481.429 899.067 484.162 902.933 486.095 907.4C488.095 911.8 489.095 916.667 489.095 922C489.095 927.267 488.095 932.133 486.095 936.6C484.162 941.067 481.429 944.967 477.895 948.3C474.362 951.567 470.195 954.1 465.395 955.9C460.595 957.7 455.329 958.6 449.595 958.6ZM449.595 939.5C451.795 939.5 453.829 939.1 455.695 938.3C457.629 937.5 459.295 936.367 460.695 934.9C462.162 933.367 463.295 931.533 464.095 929.4C464.895 927.2 465.295 924.733 465.295 922C465.295 919.267 464.895 916.833 464.095 914.7C463.295 912.5 462.162 910.667 460.695 909.2C459.295 907.667 457.629 906.5 455.695 905.7C453.829 904.9 451.795 904.5 449.595 904.5C447.395 904.5 445.329 904.9 443.395 905.7C441.529 906.5 439.862 907.667 438.395 909.2C436.995 910.667 435.895 912.5 435.095 914.7C434.295 916.833 433.895 919.267 433.895 922C433.895 924.733 434.295 927.2 435.095 929.4C435.895 931.533 436.995 933.367 438.395 934.9C439.862 936.367 441.529 937.5 443.395 938.3C445.329 939.1 447.395 939.5 449.595 939.5Z"
              fill="#317EFF"/>
    </g>
    <defs>
        <clipPath id="clip0_31_81">
            <rect width="1116" height="978" fill="white"/>
        </clipPath>
    </defs>
</svg>
