<svg width="1116" height="839" viewBox="0 0 1116 839" fill="none" xmlns="http://www.w3.org/2000/svg">
<g clip-path="url(#clip0_31_81)">
<path d="M150 312V258C150 218.236 182.235 186 222 186H376C411.346 186 440 157.346 440 122C440 86.654 468.654 58 504 58H656C691.346 58 720 86.654 720 122C720 157.346 748.654 186 784 186H936C975.765 186 1008 218.235 1008 258V694C1008 733.764 979.765 805 940 805H580" stroke="#292C31" stroke-width="32"/>
<path d="M628 118H530C516.745 118 506 128.745 506 142V168C506 181.255 516.745 192 530 192H628C641.255 192 652 181.255 652 168V142C652 128.745 641.255 118 628 118Z" stroke="#292C31" stroke-width="8"/>
<path d="M920.135 244H889C880.163 244 873 251.163 873 260C873 268.837 880.163 276 889 276H920.135C928.972 276 936.135 268.837 936.135 260C936.135 251.163 928.972 244 920.135 244Z" fill="#292C31"/>
<path d="M653 398C653 411.255 642.255 422 629 422C615.745 422 605 411.255 605 398C605 384.745 615.745 374 629 374C642.255 374 653 384.745 653 398Z" fill="#292C31"/>
<path d="M729.77 548.516C786.84 457.185 759.065 336.883 667.734 279.813C576.403 222.743 456.101 250.517 399.031 341.848" stroke="#292C31" stroke-width="24"/>
<path d="M858 260C858 268.837 850.837 276 842 276C833.163 276 826 268.837 826 260C826 251.163 833.163 244 842 244C850.837 244 858 251.163 858 260Z" fill="#292C31"/>
<path d="M16.888 490.552C24.1627 512.211 38.216 523.04 59.048 523.04C73.1013 523.04 82.856 519.072 88.312 511.136C93.9333 503.035 96.744 491.957 96.744 477.904V354.4H104.184V477.904C104.184 512.955 89.1387 530.48 59.048 530.48C44.8293 530.48 33.8347 526.925 26.064 519.816C18.4587 512.707 12.424 502.952 7.96 490.552H16.888ZM164.673 520.56H245.521L194.681 400.776L140.617 528H132.681L194.681 381.68L256.681 528H164.673V520.56ZM284.974 528V384.16H292.414L373.262 514.36V384.16H380.702V528H373.262L292.414 397.552V528H284.974ZM427.865 384.16H435.305V528H427.865V384.16ZM482.357 528V384.16H489.797V528H482.357ZM574.117 528L497.733 452.112L566.181 384.16H576.845L508.397 452.112L584.781 528H574.117ZM607.014 469.72V462.28H656.118V469.72H607.014ZM48.88 730.56H146.592V582.008L90.792 701.544L34.992 581.76V738L27.552 737.752V564.152H34.992L90.792 683.936L146.592 564.4L154.032 564.152V738L48.88 737.752V730.56ZM298.37 723.368C289.277 734.776 274.397 740.48 253.73 740.48C233.063 740.48 218.266 734.611 209.338 722.872C200.41 711.133 195.946 692.203 195.946 666.08C195.946 639.957 200.41 621.027 209.338 609.288C218.266 597.549 233.063 591.68 253.73 591.68C277.703 591.68 293.989 599.533 302.586 615.24L241.826 666.08H230.17L292.914 613.752C285.639 603.997 272.578 599.12 253.73 599.12C245.463 599.12 238.519 600.029 232.898 601.848C227.277 603.501 222.069 606.725 217.274 611.52C212.645 616.149 209.173 623.011 206.858 632.104C204.543 641.032 203.386 652.357 203.386 666.08C203.386 679.803 204.543 691.211 206.858 700.304C209.173 709.232 212.645 716.093 217.274 720.888C222.069 725.517 227.277 728.741 232.898 730.56C238.519 732.213 245.463 733.04 253.73 733.04C272.578 733.04 285.639 728.163 292.914 718.408L298.37 723.368ZM338.013 738V594.16H345.453L426.301 724.36V594.16H433.741V738H426.301L345.453 607.552V738H338.013ZM573.904 594.16V601.6H521.824V738H514.384V601.6H462.304V594.16H573.904ZM698.706 723.368C689.613 734.776 674.733 740.48 654.066 740.48C633.399 740.48 618.602 734.611 609.674 722.872C600.746 711.133 596.282 692.203 596.282 666.08C596.282 639.957 600.746 621.027 609.674 609.288C618.602 597.549 633.399 591.68 654.066 591.68C678.039 591.68 694.325 599.533 702.922 615.24L642.162 666.08H630.506L693.25 613.752C685.975 603.997 672.914 599.12 654.066 599.12C645.799 599.12 638.855 600.029 633.234 601.848C627.613 603.501 622.405 606.725 617.61 611.52C612.981 616.149 609.509 623.011 607.194 632.104C604.879 641.032 603.722 652.357 603.722 666.08C603.722 679.803 604.879 691.211 607.194 700.304C609.509 709.232 612.981 716.093 617.61 720.888C622.405 725.517 627.613 728.741 633.234 730.56C638.855 732.213 645.799 733.04 654.066 733.04C672.914 733.04 685.975 728.163 693.25 718.408L698.706 723.368ZM821.181 730.56V738H738.349V594.16H745.789V730.56H821.181Z" fill="#292C31"/>
<path d="M324.22 826.58C321.39 826.58 318.779 826.281 316.389 825.684C313.998 825.068 311.801 824.181 309.797 823.021L311.669 818.96C313.128 819.821 314.982 820.595 317.232 821.28C319.482 821.966 321.776 822.309 324.114 822.309C326.188 822.309 327.771 822.036 328.86 821.491C329.968 820.946 330.732 820.103 331.154 818.96C331.576 817.8 331.787 816.306 331.787 814.478C331.787 813.405 331.497 812.5 330.917 811.762C330.337 811.006 329.08 810.303 327.146 809.652L317.944 806.594C315.308 805.715 313.409 804.599 312.249 803.245C311.089 801.874 310.509 799.888 310.509 797.286C310.509 794.843 311.062 792.892 312.17 791.433C313.295 789.974 314.824 788.919 316.758 788.269C318.691 787.618 320.871 787.293 323.297 787.293C326.549 787.293 329.186 787.548 331.207 788.058C333.229 788.55 334.854 789.183 336.085 789.956L334.793 794.096C333.65 793.48 332.218 792.909 330.495 792.382C328.79 791.837 326.698 791.564 324.22 791.564C321.46 791.564 319.342 791.925 317.865 792.646C316.389 793.366 315.65 794.922 315.65 797.312C315.65 798.473 315.896 799.422 316.389 800.16C316.898 800.881 317.962 801.522 319.579 802.085L329.177 805.328C331.778 806.207 333.677 807.367 334.872 808.809C336.085 810.25 336.691 812.412 336.691 815.295C336.691 818.811 335.716 821.57 333.765 823.574C331.831 825.578 328.649 826.58 324.22 826.58ZM353.593 826V792.224H342.598V787.873H369.914V792.224H358.893V826H353.593ZM392.669 826.58C389.558 826.58 387 826.237 384.996 825.552C383.01 824.866 381.463 823.926 380.355 822.73C379.248 821.535 378.475 820.155 378.035 818.591C377.613 817.009 377.402 815.321 377.402 813.528V787.873H382.729V814.082C382.729 816.42 383.186 818.178 384.1 819.355C385.031 820.533 386.253 821.324 387.765 821.729C389.276 822.115 390.911 822.309 392.669 822.309C394.462 822.309 396.062 822.115 397.468 821.729C398.892 821.324 400.017 820.533 400.843 819.355C401.669 818.178 402.082 816.42 402.082 814.082V787.873H407.408V813.528C407.408 815.286 407.188 816.956 406.749 818.538C406.327 820.103 405.58 821.491 404.508 822.704C403.436 823.917 401.941 824.866 400.025 825.552C398.109 826.237 395.657 826.58 392.669 826.58ZM418.43 826V787.873H433.564C437.098 787.873 439.919 788.444 442.028 789.587C444.138 790.712 445.658 792.241 446.59 794.175C447.539 796.108 448.014 798.288 448.014 800.714V813.291C448.014 817.422 446.818 820.577 444.428 822.757C442.055 824.919 438.451 826 433.617 826H418.43ZM423.756 822.045H433.09C434.918 822.045 436.553 821.852 437.994 821.465C439.453 821.061 440.604 820.27 441.448 819.092C442.292 817.914 442.714 816.156 442.714 813.818V800.397C442.714 798.042 442.283 796.258 441.422 795.045C440.578 793.814 439.427 792.979 437.968 792.54C436.526 792.083 434.9 791.854 433.09 791.854H423.756V822.045ZM457.822 822.045H465.1V791.802H457.822V787.873H477.65V791.802H470.399V822.045H477.65V826H457.822V822.045ZM503.279 826.58C500.098 826.58 497.479 826.255 495.422 825.604C493.383 824.954 491.792 824.04 490.649 822.862C489.507 821.667 488.707 820.252 488.25 818.617C487.793 816.982 487.564 815.172 487.564 813.186V801.188C487.564 799.167 487.784 797.312 488.224 795.625C488.681 793.938 489.48 792.47 490.623 791.222C491.766 789.974 493.356 789.007 495.396 788.321C497.452 787.636 500.08 787.293 503.279 787.293C506.355 787.293 508.887 787.653 510.873 788.374C512.859 789.095 514.406 790.105 515.514 791.406C516.621 792.689 517.395 794.192 517.834 795.915C518.291 797.638 518.52 799.51 518.52 801.531V812.816C518.52 814.768 518.291 816.587 517.834 818.274C517.395 819.944 516.612 821.403 515.487 822.651C514.38 823.882 512.833 824.849 510.847 825.552C508.86 826.237 506.338 826.58 503.279 826.58ZM503.279 822.309C505.547 822.309 507.41 822.089 508.869 821.649C510.346 821.192 511.436 820.366 512.139 819.171C512.859 817.976 513.22 816.253 513.22 814.003V800.213C513.22 797.945 512.859 796.188 512.139 794.939C511.418 793.691 510.319 792.821 508.843 792.329C507.384 791.819 505.529 791.564 503.279 791.564C501.047 791.564 499.157 791.819 497.61 792.329C496.063 792.821 494.886 793.691 494.077 794.939C493.286 796.188 492.891 797.945 492.891 800.213V814.003C492.891 816.253 493.286 817.976 494.077 819.171C494.868 820.366 496.037 821.192 497.584 821.649C499.131 822.089 501.029 822.309 503.279 822.309Z" fill="#37C6E6"/>
</g>
<defs>
<clipPath id="clip0_31_81">
<rect width="1116" height="839" fill="white"/>
</clipPath>
</defs>
</svg>
